<?xml version="1.0" encoding="UTF-8"?>
<svg width="2517px" height="512px" viewBox="0 0 2517 512" version="1.1" xmlns="http://www.w3.org/2000/svg" xmlns:xlink="http://www.w3.org/1999/xlink">
    <!-- Generator: Sketch 58 (84663) - https://sketch.com -->
    <title>Group 2</title>
    <desc>Created with Sketch.</desc>
    <g id="Page-1" stroke="none" stroke-width="1" fill="none" fill-rule="evenodd">
        <g id="Group-2" transform="translate(0.000000, -89.000000)" fill-rule="nonzero">
            <g id="instagram" transform="translate(0.000000, 89.000000)">
                <path d="M114.759,512 L175.862,512 L79.448,450.207 L0.198,403.898 C3.659,464.09 53.716,512 114.759,512 Z" id="Path" fill="#FFE358"></path>
                <path d="M335.448,476.69 L266.442,459.035 L114.759,459.035 C80.687,459.035 52.966,431.314 52.966,397.242 L52.966,363.366 L26.483,334.946 L0,339.628 L0,397.241 C0,399.477 0.072,401.695 0.198,403.898 L175.862,512 L384.629,512 L335.448,476.69 Z" id="Path" fill="#FFAC58"></path>
                <path d="M441.655,440.14 C430.411,451.777 414.662,459.034 397.241,459.034 L266.442,459.034 L384.629,512 L397.241,512 C438.443,512 474.637,490.171 494.881,457.473 L467.859,441.379 L441.655,440.14 Z" id="Path" fill="#FF6858"></path>
                <path d="M459.034,326.014 L459.034,397.242 C459.034,413.894 452.401,429.017 441.655,440.141 L494.882,457.474 C505.728,439.954 512,419.318 512,397.241 L512,334.436 L484.604,319.045 L459.034,326.014 Z" id="Path" fill="#EB5849"></path>
                <polygon id="Path" fill="#F753C9" points="512 149.19 483.797 142.474 459.034 157.3 459.034 326.014 512 334.436"></polygon>
                <path d="M512,114.759 C512,57.126 469.292,9.286 413.864,1.209 L344.43,30.101 L309.247,52.966 L397.241,52.966 C431.313,52.966 459.034,80.687 459.034,114.759 L459.034,157.3 L512,149.19 L512,114.759 Z" id="Path" fill="#DD40B1"></path>
                <path d="M317.732,0 L252.05,24.636 L200.245,52.966 L309.247,52.966 L413.864,1.208 C408.435,0.417 402.887,0 397.241,0 L317.732,0 Z" id="Path" fill="#AE41E5"></path>
                <path d="M256,406.069 C274.358,406.069 291.954,402.749 308.226,396.689 L222.206,357.642 L131.028,338.985 C157.946,379.39 203.913,406.069 256,406.069 Z" id="Path" fill="#FF6858"></path>
                <path d="M329.153,305.358 C313.27,328.823 286.405,344.276 256,344.276 C215.727,344.276 181.692,317.158 171.133,280.23 L147.451,265.429 L106.604,269.967 C108.957,295.312 117.618,318.854 131.029,338.984 L308.227,396.689 C346.53,382.425 377.464,352.932 393.685,315.621 L361.932,299.536 L329.153,305.358 Z" id="Path" fill="#EB5849"></path>
                <g id="Group" transform="translate(105.000000, 164.000000)" fill="#F753C9">
                    <path d="M62.724,92 C62.724,70.122 70.742,50.093 83.971,34.654 L46.313,29.386 L8.063,46.278 C3.438,60.7 0.931,76.062 0.931,92 C0.931,96.712 1.175,101.365 1.602,105.966 L66.132,116.228 C63.929,108.524 62.724,100.403 62.724,92 Z" id="Path"></path>
                    <path d="M301.069,92 C301.069,59.862 290.91,30.054 273.641,5.61 L236.244,0.302 L197.826,17.219 C222.699,32.85 239.276,60.517 239.276,92 C239.276,110.27 233.696,127.261 224.153,141.358 L288.684,151.62 C296.634,133.334 301.069,113.18 301.069,92 Z" id="Path"></path>
                </g>
                <g id="Group" transform="translate(113.000000, 79.000000)" fill="#DD40B1">
                    <path d="M143,88.724 C160.194,88.724 176.242,93.683 189.826,102.219 L265.641,90.61 C238.445,52.117 193.611,26.931 143,26.931 C76.19,26.931 19.446,70.82 0.063,131.276 L75.971,119.652 C92.173,100.742 116.203,88.724 143,88.724 Z" id="Path"></path>
                    <path d="M284.241,71.069 C303.711,71.069 319.551,55.229 319.551,35.759 C319.551,16.289 303.711,0.449 284.241,0.449 C264.771,0.449 248.931,16.289 248.931,35.759 C248.931,55.229 264.771,71.069 284.241,71.069 Z" id="Path"></path>
                </g>
                <polygon id="Path" fill="#FF6858" points="52.966 313.564 27.47 300.847 0 296.316 0 339.629 52.966 363.366"></polygon>
                <polygon id="Path" fill="#EB5849" points="0 253.014 0 296.316 52.966 313.564 52.966 261.437 25.446 251.543"></polygon>
                <polygon id="Path" fill="#F753C9" points="52.966 219.479 25.749 219.233 0 227.59 0 253.014 52.966 261.437"></polygon>
                <polygon id="Path" fill="#DD40B1" points="52.966 179.757 24.911 182.603 0 205.962 0 227.59 52.966 219.479"></polygon>
                <polygon id="Path" fill="#AE41E5" points="0 205.962 52.966 179.757 52.966 119.362 21.9 122.333 0 143.241"></polygon>
                <path d="M205.059,0 L84.206,46.481 L1.387,96.928 C0.477,102.741 0,108.695 0,114.759 L0,143.241 L52.966,119.363 L52.966,114.758 C52.966,80.686 80.687,52.965 114.759,52.965 L200.246,52.965 L317.732,0 L205.059,0 Z" id="Path" fill="#7B30D7"></path>
                <path d="M114.759,0 C57.545,0 9.978,42.088 1.387,96.928 L205.059,0 L114.759,0 Z" id="Path" fill="#4B24C6"></path>
            </g>
            <path d="M622.44,396 L622.44,119.64 L683.592,119.64 L683.592,396 L622.44,396 Z M854.504,198.824 C877.501448,198.824 894.61861,205.553266 905.856,219.012 C917.09339,232.470734 922.712,252.789197 922.712,279.968 L922.712,396 L863.52,396 L863.52,282.712 C863.52,269.645268 861.102691,260.106697 856.268,254.096 C851.433309,248.085303 843.920051,245.08 833.728,245.08 C821.445272,245.08 811.580037,248.999961 804.132,256.84 C796.683963,264.680039 792.96,275.133268 792.96,288.2 L792.96,396 L733.768,396 L733.768,203.528 L791.392,203.528 L791.392,230.968 C798.186701,220.514614 807.006612,212.544027 817.852,207.056 C828.697388,201.567973 840.914599,198.824 854.504,198.824 Z M1041.096,399.136 C1023.32524,399.136 1007.05741,397.110687 992.292,393.06 C977.526593,389.009313 964.78672,383.194705 954.072,375.616 L969.752,334.848 C980.205386,341.904035 991.703937,347.39198 1004.248,351.312 C1016.79206,355.23202 1029.4666,357.192 1042.272,357.192 C1051.41871,357.192 1058.53997,355.689348 1063.636,352.684 C1068.73203,349.678652 1071.28,345.562693 1071.28,340.336 C1071.28,335.631976 1069.51602,331.973346 1065.988,329.36 C1062.45998,326.746654 1055.86138,324.394677 1046.192,322.304 L1014.832,315.248 C996.277241,311.066646 982.62271,304.59871 973.868,295.844 C965.11329,287.08929 960.736,275.133409 960.736,259.976 C960.736,247.954607 964.198632,237.370712 971.124,228.224 C978.049368,219.077288 987.84927,211.890693 1000.524,206.664 C1013.19873,201.437307 1027.63725,198.824 1043.84,198.824 C1057.69074,198.824 1071.14927,200.914646 1084.216,205.096 C1097.28273,209.277354 1109.04261,215.157295 1119.496,222.736 L1103.816,261.936 C1083.4319,247.823929 1063.30943,240.768 1043.448,240.768 C1034.30129,240.768 1027.11469,242.335984 1021.888,245.472 C1016.66131,248.608016 1014.048,253.050638 1014.048,258.8 C1014.048,262.981354 1015.61598,266.247988 1018.752,268.6 C1021.88802,270.952012 1027.37596,273.173323 1035.216,275.264 L1067.752,282.712 C1087.3521,287.154689 1101.65995,293.883955 1110.676,302.9 C1119.69205,311.916045 1124.2,324.133256 1124.2,339.552 C1124.2,358.106759 1116.81741,372.675947 1102.052,383.26 C1087.28659,393.844053 1066.96813,399.136 1041.096,399.136 Z M1264.536,355.624 C1270.5467,355.624 1276.81863,355.232004 1283.352,354.448 L1280.216,397.568 C1272.6373,398.613339 1265.0587,399.136 1257.48,399.136 C1228.21052,399.136 1206.84673,392.733397 1193.388,379.928 C1179.92927,367.122603 1173.2,347.653464 1173.2,321.52 L1173.2,247.824 L1136.744,247.824 L1136.744,203.528 L1173.2,203.528 L1173.2,147.08 L1232.392,147.08 L1232.392,203.528 L1280.608,203.528 L1280.608,247.824 L1232.392,247.824 L1232.392,321.128 C1232.392,344.125448 1243.10656,355.624 1264.536,355.624 Z M1395.072,198.824 C1423.81881,198.824 1445.05193,205.618599 1458.772,219.208 C1472.49207,232.797401 1479.352,253.834524 1479.352,282.32 L1479.352,396 L1423.296,396 L1423.296,367.384 C1419.37598,377.314716 1412.84271,385.089305 1403.696,390.708 C1394.54929,396.326695 1383.83473,399.136 1371.552,399.136 C1358.48527,399.136 1346.66005,396.522693 1336.076,391.296 C1325.49195,386.069307 1317.12936,378.752047 1310.988,369.344 C1304.84664,359.935953 1301.776,349.482724 1301.776,337.984 C1301.776,323.871929 1305.3693,312.765374 1312.556,304.664 C1319.7427,296.562626 1331.30659,290.682685 1347.248,287.024 C1363.18941,283.365315 1385.01053,281.536 1412.712,281.536 L1422.904,281.536 L1422.904,274.48 C1422.904,262.981276 1420.42136,254.880024 1415.456,250.176 C1410.49064,245.471976 1401.86673,243.12 1389.584,243.12 C1380.17595,243.12 1369.72272,244.81865 1358.224,248.216 C1346.72528,251.61335 1335.74939,256.317303 1325.296,262.328 L1309.616,222.736 C1320.59205,215.941299 1334.11592,210.257356 1350.188,205.684 C1366.26008,201.110644 1381.22126,198.824 1395.072,198.824 Z M1384.488,358.368 C1395.98672,358.368 1405.26396,354.513372 1412.32,346.804 C1419.37604,339.094628 1422.904,329.098728 1422.904,316.816 L1422.904,310.152 L1416.24,310.152 C1395.07189,310.152 1380.24138,311.85065 1371.748,315.248 C1363.25462,318.64535 1359.008,324.786622 1359.008,333.672 C1359.008,340.728035 1361.42531,346.607976 1366.26,351.312 C1371.09469,356.016024 1377.17063,358.368 1384.488,358.368 Z M1765.904,243.512 L1765.904,378.752 C1752.57593,385.285366 1736.89609,390.381315 1718.864,394.04 C1700.83191,397.698685 1682.27743,399.528 1663.2,399.528 C1633.93052,399.528 1608.58144,393.844057 1587.152,382.476 C1565.72256,371.107943 1549.25872,354.774773 1537.76,333.476 C1526.26128,312.177227 1520.512,286.89348 1520.512,257.624 C1520.512,228.87719 1526.19594,203.854773 1537.564,182.556 C1548.93206,161.257227 1565.19989,144.858724 1586.368,133.36 C1607.53611,121.861276 1632.23186,116.112 1660.456,116.112 C1680.31743,116.112 1698.80658,118.855973 1715.924,124.344 C1733.04142,129.832027 1747.21861,137.410618 1758.456,147.08 L1739.248,190.592 C1726.4426,181.445288 1713.96406,174.846687 1701.812,170.796 C1689.65994,166.745313 1676.52807,164.72 1662.416,164.72 C1609.10373,164.72 1582.448,195.68769 1582.448,257.624 C1582.448,289.506826 1589.37326,313.287922 1603.224,328.968 C1617.07474,344.648078 1637.98119,352.488 1665.944,352.488 C1681.10141,352.488 1696.12793,350.52802 1711.024,346.608 L1711.024,285.848 L1656.928,285.848 L1656.928,243.512 L1765.904,243.512 Z M1950.536,247.432 L1917.216,250.96 C1900.75192,252.528008 1889.1227,257.166628 1882.328,264.876 C1875.5333,272.585372 1872.136,282.842603 1872.136,295.648 L1872.136,396 L1812.944,396 L1812.944,203.528 L1869.784,203.528 L1869.784,236.064 C1879.45338,213.850556 1899.44518,201.698677 1929.76,199.608 L1947.008,198.432 L1950.536,247.432 Z M2062.648,399.136 C2042.2639,399.136 2024.36274,395.020041 2008.944,386.788 C1993.52526,378.555959 1981.63471,366.926742 1973.272,351.9 C1964.90929,336.873258 1960.728,319.168102 1960.728,298.784 C1960.728,278.399898 1964.90929,260.694742 1973.272,245.668 C1981.63471,230.641258 1993.52526,219.077374 2008.944,210.976 C2024.36274,202.874626 2042.2639,198.824 2062.648,198.824 C2083.0321,198.824 2100.93326,202.874626 2116.352,210.976 C2131.77074,219.077374 2143.66129,230.641258 2152.024,245.668 C2160.38671,260.694742 2164.568,278.399898 2164.568,298.784 C2164.568,319.168102 2160.38671,336.873258 2152.024,351.9 C2143.66129,366.926742 2131.77074,378.555959 2116.352,386.788 C2100.93326,395.020041 2083.0321,399.136 2062.648,399.136 Z M2062.648,354.056 C2091.39481,354.056 2105.768,335.632184 2105.768,298.784 C2105.768,280.229241 2102.04404,266.378712 2094.596,257.232 C2087.14796,248.085288 2076.49874,243.512 2062.648,243.512 C2033.90119,243.512 2019.528,261.935816 2019.528,298.784 C2019.528,335.632184 2033.90119,354.056 2062.648,354.056 Z M2459.352,203.528 L2516.976,203.528 L2438.968,396 L2388.792,396 L2346.456,287.416 L2305.296,396 L2255.512,396 L2177.112,203.528 L2237.48,203.528 L2282.952,325.44 L2328.424,203.528 L2368.408,203.528 L2414.272,326.616 L2459.352,203.528 Z" id="InstaGrow" fill="#1D1F2A"></path>
            <path d="M630.251562,571 L630.251562,492.953125 L656.776953,492.953125 C664.616836,492.953125 670.58455,494.429673 674.680273,497.382812 C678.775997,500.335952 680.823828,504.64255 680.823828,510.302734 C680.823828,519.6895 674.583656,526.333965 662.103125,530.236328 C676.693042,533.787127 683.987891,540.941352 683.987891,551.699219 C683.987891,557.921906 681.85217,562.694319 677.580664,566.016602 C673.309158,569.338884 667.183243,571 659.202734,571 L630.251562,571 Z M645.544531,525.4375 L649.394141,525.4375 C653.964476,525.4375 657.594322,524.312511 660.283789,522.0625 C662.973256,519.812489 664.317969,516.753926 664.317969,512.886719 C664.317969,509.300763 663.236925,506.866217 661.074805,505.583008 C658.976276,504.33754 655.064551,503.696499 649.339516,503.659868 L645.544531,503.658203 L645.544531,525.4375 Z M645.544531,535.878906 L645.544531,559.925781 L649.025,559.925781 C655.845347,559.925781 660.547448,559.196296 663.131445,557.737305 C665.715443,556.278313 667.007422,553.615254 667.007422,549.748047 C667.007422,545.775371 665.275994,542.470716 661.813086,539.833984 C658.350178,537.197252 653.982058,535.878906 648.708594,535.878906 L645.544531,535.878906 Z M756.403516,572.951172 C744.5558,572.951172 735.081286,569.224647 727.979687,561.771484 C720.878089,554.318322 717.327344,544.386781 717.327344,531.976562 C717.327344,519.425718 720.895667,509.459021 728.032422,502.076172 C735.169176,494.693322 744.801892,491.001953 756.930859,491.001953 C768.989513,491.001953 778.595863,494.693322 785.750195,502.076172 C792.904528,509.459021 796.481641,519.372985 796.481641,531.818359 C796.481641,544.544986 792.904528,554.581995 785.750195,561.929688 C778.595863,569.27738 768.813734,572.951172 756.403516,572.951172 Z M756.614453,562.193359 C763.575425,562.193359 769.086113,559.459988 773.14668,553.993164 C777.207247,548.52634 779.2375,541.117234 779.2375,531.765625 C779.2375,522.695267 777.198458,515.417996 773.120312,509.933594 C769.042167,504.449191 763.645737,501.707031 756.930859,501.707031 C750.145669,501.707031 744.722872,504.449191 740.662305,509.933594 C736.601738,515.417996 734.571484,522.748001 734.571484,531.923828 C734.571484,541.029342 736.592949,548.350558 740.635937,553.887695 C744.678926,559.424832 750.005045,562.193359 756.614453,562.193359 Z M869.213672,572.951172 C857.365956,572.951172 847.891442,569.224647 840.789844,561.771484 C833.688246,554.318322 830.1375,544.386781 830.1375,531.976562 C830.1375,519.425718 833.705824,509.459021 840.842578,502.076172 C847.979333,494.693322 857.612049,491.001953 869.741016,491.001953 C881.79967,491.001953 891.406019,494.693322 898.560352,502.076172 C905.714684,509.459021 909.291797,519.372985 909.291797,531.818359 C909.291797,544.544986 905.714684,554.581995 898.560352,561.929688 C891.406019,569.27738 881.62389,572.951172 869.213672,572.951172 Z M869.424609,562.193359 C876.385582,562.193359 881.896269,559.459988 885.956836,553.993164 C890.017403,548.52634 892.047656,541.117234 892.047656,531.765625 C892.047656,522.695267 890.008614,515.417996 885.930469,509.933594 C881.852323,504.449191 876.455893,501.707031 869.741016,501.707031 C862.955825,501.707031 857.533028,504.449191 853.472461,509.933594 C849.411894,515.417996 847.381641,522.748001 847.381641,531.923828 C847.381641,541.029342 849.403105,548.350558 853.446094,553.887695 C857.489083,559.424832 862.815201,562.193359 869.424609,562.193359 Z M943.422266,570.314453 L943.422266,556.919922 C951.824651,560.435564 959.014033,562.193359 964.990625,562.193359 C969.17424,562.193359 972.470105,561.261728 974.87832,559.398438 C977.286535,557.535147 978.490625,555.003922 978.490625,551.804688 C978.490625,549.273425 977.734773,547.137704 976.223047,545.397461 C974.711321,543.657218 971.846115,541.591809 967.627344,539.201172 L962.406641,536.300781 C955.410512,532.363262 950.471108,528.592791 947.588281,524.989258 C944.705454,521.385724 943.264063,517.175805 943.264063,512.359375 C943.264063,505.925749 945.628297,500.757832 950.356836,496.855469 C955.085375,492.953105 961.334336,491.001953 969.103906,491.001953 C975.326594,491.001953 982.340195,491.898429 990.144922,493.691406 L990.144922,506.189453 C982.164413,503.201157 975.853929,501.707031 971.213281,501.707031 C967.627326,501.707031 964.753331,502.506828 962.591211,504.106445 C960.429091,505.706063 959.348047,507.806628 959.348047,510.408203 C959.348047,512.552745 960.103899,514.433586 961.615625,516.050781 C963.127351,517.667977 965.974979,519.654285 970.158594,522.009766 L975.748438,525.121094 C983.271913,529.339865 988.457408,533.224592 991.305078,536.775391 C994.152749,540.32619 995.576563,544.650365 995.576563,549.748047 C995.576563,556.990271 992.887136,562.667948 987.508203,566.78125 C982.12927,570.894552 974.711375,572.951172 965.254297,572.951172 C958.996453,572.951172 951.719182,572.072274 943.422266,570.314453 Z M1052.75195,571 L1052.75195,503.658203 L1024.80273,503.658203 L1024.80273,492.953125 L1096.99609,492.953125 L1096.99609,503.658203 L1069.04688,503.658203 L1069.04688,571 L1052.75195,571 Z M1209.87031,571 L1209.87031,538.304688 L1183.66133,492.953125 L1201.59102,492.953125 L1220.62812,525.912109 L1240.50898,492.953125 L1253.37617,492.953125 L1226.1125,538.199219 L1226.1125,571 L1209.87031,571 Z M1323.57695,572.951172 C1311.72924,572.951172 1302.25472,569.224647 1295.15312,561.771484 C1288.05153,554.318322 1284.50078,544.386781 1284.50078,531.976562 C1284.50078,519.425718 1288.0691,509.459021 1295.20586,502.076172 C1302.34261,494.693322 1311.97533,491.001953 1324.1043,491.001953 C1336.16295,491.001953 1345.7693,494.693322 1352.92363,502.076172 C1360.07797,509.459021 1363.65508,519.372985 1363.65508,531.818359 C1363.65508,544.544986 1360.07797,554.581995 1352.92363,561.929688 C1345.7693,569.27738 1335.98717,572.951172 1323.57695,572.951172 Z M1323.78789,562.193359 C1330.74886,562.193359 1336.25955,559.459988 1340.32012,553.993164 C1344.38068,548.52634 1346.41094,541.117234 1346.41094,531.765625 C1346.41094,522.695267 1344.3719,515.417996 1340.29375,509.933594 C1336.2156,504.449191 1330.81917,501.707031 1324.1043,501.707031 C1317.31911,501.707031 1311.89631,504.449191 1307.83574,509.933594 C1303.77518,515.417996 1301.74492,522.748001 1301.74492,531.923828 C1301.74492,541.029342 1303.76639,548.350558 1307.80937,553.887695 C1311.85236,559.424832 1317.17848,562.193359 1323.78789,562.193359 Z M1401.52969,492.953125 L1417.77187,492.953125 L1417.77187,540.783203 C1417.77187,548.341835 1419.01991,553.799788 1421.51602,557.157227 C1424.01212,560.514665 1428.03747,562.193359 1433.59219,562.193359 C1438.90081,562.193359 1442.74159,560.593766 1445.11465,557.394531 C1447.48771,554.195297 1448.67422,549.044957 1448.67422,541.943359 L1448.67422,492.953125 L1462.80703,492.953125 L1462.80703,540.888672 C1462.80703,548.095739 1462.12149,553.588848 1460.75039,557.368164 C1459.37929,561.14748 1456.88322,564.425767 1453.26211,567.203125 C1448.30505,571.035175 1441.64301,572.951172 1433.27578,572.951172 C1424.31089,572.951172 1417.10393,570.91213 1411.65469,566.833984 C1407.89295,564.02147 1405.26505,560.690449 1403.7709,556.84082 C1402.27675,552.991192 1401.52969,547.621128 1401.52969,540.730469 L1401.52969,492.953125 Z M1505.58594,571 L1505.58594,492.953125 L1534.80078,492.953125 C1550.65633,492.953125 1558.58398,499.404232 1558.58398,512.306641 C1558.58398,517.123071 1557.23927,521.508769 1554.5498,525.463867 C1551.86034,529.418965 1548.16018,532.451161 1543.44922,534.560547 L1568.97266,571 L1549.19727,571 L1529.84375,539.095703 L1520.87891,539.095703 L1520.87891,571 L1505.58594,571 Z M1520.87891,528.390625 L1524.62305,528.390625 C1536.40045,528.390625 1542.28906,523.627001 1542.28906,514.099609 C1542.28906,507.138637 1537.03326,503.658203 1526.52148,503.658203 L1520.87891,503.658203 L1520.87891,528.390625 Z M1663.49531,571 L1663.49531,492.953125 L1679.7375,492.953125 L1679.7375,571 L1663.49531,571 Z M1723.20195,571 L1723.20195,492.953125 L1737.49297,492.953125 L1773.66875,546.267578 L1773.66875,492.953125 L1786.69414,492.953125 L1786.69414,571 L1772.13945,571 L1736.22734,517.685547 L1736.22734,571 L1723.20195,571 Z M1825.72891,570.314453 L1825.72891,556.919922 C1834.13129,560.435564 1841.32067,562.193359 1847.29727,562.193359 C1851.48088,562.193359 1854.77675,561.261728 1857.18496,559.398438 C1859.59318,557.535147 1860.79727,555.003922 1860.79727,551.804688 C1860.79727,549.273425 1860.04141,547.137704 1858.52969,545.397461 C1857.01796,543.657218 1854.15276,541.591809 1849.93398,539.201172 L1844.71328,536.300781 C1837.71715,532.363262 1832.77775,528.592791 1829.89492,524.989258 C1827.01209,521.385724 1825.5707,517.175805 1825.5707,512.359375 C1825.5707,505.925749 1827.93494,500.757832 1832.66348,496.855469 C1837.39202,492.953105 1843.64098,491.001953 1851.41055,491.001953 C1857.63323,491.001953 1864.64684,491.898429 1872.45156,493.691406 L1872.45156,506.189453 C1864.47105,503.201157 1858.16057,501.707031 1853.51992,501.707031 C1849.93397,501.707031 1847.05997,502.506828 1844.89785,504.106445 C1842.73573,505.706063 1841.65469,507.806628 1841.65469,510.408203 C1841.65469,512.552745 1842.41054,514.433586 1843.92227,516.050781 C1845.43399,517.667977 1848.28162,519.654285 1852.46523,522.009766 L1858.05508,525.121094 C1865.57855,529.339865 1870.76405,533.224592 1873.61172,536.775391 C1876.45939,540.32619 1877.8832,544.650365 1877.8832,549.748047 C1877.8832,556.990271 1875.19378,562.667948 1869.81484,566.78125 C1864.43591,570.894552 1857.01802,572.951172 1847.56094,572.951172 C1841.30309,572.951172 1834.02582,572.072274 1825.72891,570.314453 Z M1935.05859,571 L1935.05859,503.658203 L1907.10938,503.658203 L1907.10938,492.953125 L1979.30273,492.953125 L1979.30273,503.658203 L1951.35352,503.658203 L1951.35352,571 L1935.05859,571 Z M2005.57578,571 L2035.95078,492.953125 L2052.19297,492.953125 L2082.56797,571 L2065.90391,571 L2057.78281,550.169922 L2025.50938,550.169922 L2017.38828,571 L2005.57578,571 Z M2029.51719,539.78125 L2053.775,539.78125 L2041.64609,508.667969 L2029.51719,539.78125 Z M2179.87422,569.154297 C2170.10073,571.68556 2161.66332,572.951172 2154.56172,572.951172 C2141.09681,572.951172 2130.75218,569.409215 2123.52754,562.325195 C2116.30289,555.241176 2112.69063,545.08991 2112.69063,531.871094 C2112.69063,518.757747 2116.30289,508.668004 2123.52754,501.601562 C2130.75218,494.535121 2141.04407,491.001953 2154.40352,491.001953 C2162.94653,491.001953 2171.4191,492.003896 2179.82148,494.007812 L2179.82148,506.716797 C2170.08315,503.376936 2162.08519,501.707031 2155.82734,501.707031 C2147.56558,501.707031 2141.18479,504.343724 2136.68477,509.617188 C2132.18474,514.890651 2129.93477,522.36128 2129.93477,532.029297 C2129.93477,541.380906 2132.34294,548.7197 2137.15938,554.045898 C2141.97581,559.372097 2148.62027,562.035156 2157.09297,562.035156 C2158.95626,562.035156 2161.13593,561.771487 2163.63203,561.244141 L2163.63203,535.5625 L2179.87422,535.5625 L2179.87422,569.154297 Z M2221.96758,571 L2221.96758,492.953125 L2251.18242,492.953125 C2267.03797,492.953125 2274.96563,499.404232 2274.96563,512.306641 C2274.96563,517.123071 2273.62091,521.508769 2270.93145,525.463867 C2268.24198,529.418965 2264.54182,532.451161 2259.83086,534.560547 L2285.3543,571 L2265.57891,571 L2246.22539,539.095703 L2237.26055,539.095703 L2237.26055,571 L2221.96758,571 Z M2237.26055,528.390625 L2241.00469,528.390625 C2252.78209,528.390625 2258.6707,523.627001 2258.6707,514.099609 C2258.6707,507.138637 2253.4149,503.658203 2242.90313,503.658203 L2237.26055,503.658203 L2237.26055,528.390625 Z M2311.83828,571 L2342.21328,492.953125 L2358.45547,492.953125 L2388.83047,571 L2372.16641,571 L2364.04531,550.169922 L2331.77188,550.169922 L2323.65078,571 L2311.83828,571 Z M2335.77969,539.78125 L2360.0375,539.78125 L2347.90859,508.667969 L2335.77969,539.78125 Z M2423.80469,571 L2423.80469,492.953125 L2445.32031,492.953125 L2464.09375,547.849609 L2483.44727,492.953125 L2502.32617,492.953125 L2502.32617,571 L2487.34961,571 L2487.34961,512.095703 L2468.3125,565.779297 L2455.23438,565.779297 L2436.56641,511.304688 L2436.56641,571 L2423.80469,571 Z" id="BOOSTYOURINSTAGRAM" fill="#949799"></path>
        </g>
    </g>
</svg>