<?xml version="1.0" encoding="UTF-8"?>
<svg width="110px" height="110px" viewBox="0 0 110 110" version="1.1" xmlns="http://www.w3.org/2000/svg" xmlns:xlink="http://www.w3.org/1999/xlink">
    <!-- Generator: Sketch 58 (84663) - https://sketch.com -->
    <title>Group</title>
    <desc>Created with Sketch.</desc>
    <defs>
        <linearGradient x1="-4.19737618%" y1="-10.7790389%" x2="107.797759%" y2="100%" id="linearGradient-1">
            <stop stop-color="#7848F8" offset="0%"></stop>
            <stop stop-color="#D25EFF" offset="100%"></stop>
        </linearGradient>
    </defs>
    <g id="Page-1" stroke="none" stroke-width="1" fill="none" fill-rule="evenodd">
        <g id="Group">
            <rect id="Rectangle" fill="#F6F5F5" x="0" y="0" width="110" height="110" rx="10"></rect>
            <g id="Group-2" transform="translate(91.000000, 10.000000)" fill="#D85FFF">
                <circle id="Oval-Copy" cx="4.5" cy="4.5" r="4.5"></circle>
            </g>
            <g id="002-target" transform="translate(25.000000, 25.000000)" fill="url(#linearGradient-1)" fill-rule="nonzero">
                <path d="M50.0660714,21.4273571 C49.5852857,20.4922857 48.4306429,20.1364286 47.5145,20.6134286 C46.587,21.0942143 46.2197857,22.2375 46.7005714,23.165 C48.3473571,26.3412143 49.2142857,29.9187143 49.2142857,33.5 C49.2142857,46.0269286 39.0269286,56.2142857 26.5,56.2142857 C13.9730714,56.2142857 3.78571429,46.0269286 3.78571429,33.5 C3.78571429,20.9730714 13.9730714,10.7857143 26.5,10.7857143 C30.0812857,10.7857143 33.6587857,11.6526429 36.835,13.2994286 C37.7549286,13.7802143 38.9057857,13.4167857 39.3865714,12.4855 C39.8673571,11.558 39.5001429,10.4147143 38.5726429,9.93392857 C34.8588571,8.01835714 30.6832143,7 26.5,7 C11.8909286,7 0,18.8909286 0,33.5 C0,48.1090714 11.8909286,60 26.5,60 C41.1090714,60 53,48.1090714 53,33.5 C53,29.3167857 51.9816429,25.1411429 50.0660714,21.4273571 Z" id="Path"></path>
                <path d="M59.8567101,6.74263866 C59.5659946,6.04563871 58.8876585,5.59091146 58.1347798,5.59091146 L54.4076579,5.59091146 L54.4076579,1.86363899 C54.4076579,1.11072995 53.9529491,0.428639083 53.2559773,0.141639103 C52.5627326,-0.145360878 51.7614014,0.0111845659 51.2246959,0.54418453 L45.634013,6.13509325 C45.2873907,6.48545686 45.0898532,6.95882046 45.0898532,7.4545477 L45.0898532,12.273911 L30.2149098,27.1494555 C29.1079546,26.4934555 27.8332789,26.0909101 26.4542438,26.0909101 C22.3432283,26.0909101 19,29.4342735 19,33.545455 C19,37.6566366 22.3432283,41 26.4542438,41 C30.5652592,41 33.9084876,37.6566366 33.9084876,33.545455 C33.9084876,32.1663642 33.5059584,30.891637 32.8499849,29.7846371 L47.7249284,14.9090927 L52.544097,14.9090927 C53.0398042,14.9090927 53.5131487,14.7115472 53.8634981,14.3649109 L59.454181,8.77400216 C59.9871594,8.2410022 60.1474257,7.43963861 59.8567101,6.74263866 Z M26.4542438,37.2727275 C24.3968725,37.2727275 22.7271219,35.6029095 22.7271219,33.545455 C22.7271219,31.4880006 24.3968725,29.8181826 26.4542438,29.8181826 C26.7747763,29.8181826 27.0654918,29.9262735 27.3636615,30.0008189 L25.1348426,32.2260006 C24.4080539,32.9528187 24.4080539,34.1343641 25.1348426,34.8611822 C25.5001006,35.2264549 25.9771722,35.4090913 26.4542438,35.4090913 C26.9313154,35.4090913 27.408387,35.2264549 27.7736449,34.8649095 L29.9987367,32.6397278 C30.0732791,32.9341824 30.1813657,33.2249096 30.1813657,33.545455 C30.1813657,35.6029095 28.5116151,37.2727275 26.4542438,37.2727275 Z M51.7725828,11.1818202 L48.8169751,11.1818202 L48.8169751,8.22609311 L50.6805361,6.36245687 L50.6805361,7.4545477 C50.6805361,8.48327491 51.5154114,9.31818394 52.544097,9.31818394 L53.6361437,9.31818394 L51.7725828,11.1818202 Z" id="Shape"></path>
                <path d="M42.4068889,29.5762222 C42.1348889,28.5675556 41.1148889,27.9744444 40.0911111,28.2464444 C39.0824444,28.5184444 38.4893333,29.5611111 38.7613333,30.5622222 C39.0673333,31.6917778 39.2222222,32.844 39.2222222,34 C39.2222222,41.2911111 33.2911111,47.2222222 26,47.2222222 C18.7088889,47.2222222 12.7777778,41.2911111 12.7777778,34 C12.7777778,26.7088889 18.7088889,20.7777778 26,20.7777778 C27.156,20.7777778 28.3082222,20.9326667 29.434,21.2386667 C30.454,21.5144444 31.4777778,20.9175556 31.7497778,19.9088889 C32.0217778,18.904 31.4286667,17.8651111 30.42,17.5931111 C28.9768889,17.2002222 27.4884444,17 26,17 C16.6273333,17 9,24.6273333 9,34 C9,43.3726667 16.6273333,51 26,51 C35.3726667,51 43,43.3726667 43,34 C43,32.5115556 42.7997778,31.0231111 42.4068889,29.5762222 Z" id="Path"></path>
            </g>
        </g>
    </g>
</svg>